<svg xmlns="http://www.w3.org/2000/svg" viewBox="0 0 511 109"><title>p</title><path d="M93.43,48.25A15.77,15.77,0,0,1,77.66,64h-.57a.85.85,0,0,0,.65-1.39L52.35,32.48H77.66A15.77,15.77,0,0,1,93.43,48.25Z" fill="#3b82f6"/><path d="M77.74,62.62A.85.85,0,0,1,77.09,64H63.94L52.32,32.48h0Z" fill="#629bf8"/><path d="M52.32,32.48,63.94,64,53.69,72.8a.85.85,0,0,1-1.4-.64V32.48Z" fill="#89b4fa"/><path d="M122,52.69a8.64,8.64,0,0,1-3.61,3.41,12.53,12.53,0,0,1-5.91,1.28h-3.88v9.68h-8V38.43h11.88a13,13,0,0,1,5.87,1.22A8.35,8.35,0,0,1,122,43a9.92,9.92,0,0,1,1.21,5A9.58,9.58,0,0,1,122,52.69Zm-6.76-4.77q0-3.18-3.42-3.18h-3.22v6.32h3.22Q115.23,51.06,115.23,47.92Z" fill="#1b1b26"/><path d="M147.32,61.16h8.84v6.32H139.32V38.43h8Z" fill="#1b1b26"/><path d="M165.54,65.59a14.13,14.13,0,0,1-5.37-5.26,15.61,15.61,0,0,1,0-15.22,14,14,0,0,1,5.37-5.24,15.64,15.64,0,0,1,14.87,0,13.87,13.87,0,0,1,5.32,5.24,15.75,15.75,0,0,1,0,15.22,13.91,13.91,0,0,1-5.34,5.26,15.46,15.46,0,0,1-14.85,0Zm12.26-7.52a7.8,7.8,0,0,0,1.77-5.35,7.82,7.82,0,0,0-1.77-5.41,6.92,6.92,0,0,0-9.69,0,7.86,7.86,0,0,0-1.76,5.41,7.81,7.81,0,0,0,1.76,5.37,6.92,6.92,0,0,0,9.69,0Z" fill="#1b1b26"/><path d="M213,38.43v6.31h-7.58V67.06h-8V44.74h-7.58V38.43Z" fill="#1b1b26"/><rect x="126.69" y="49.38" width="8" height="17.68" fill="#1b1b26"/><circle cx="130.69" cy="42.43" r="4" fill="#3b82f6"/><path d="M247.36,39.63a11.19,11.19,0,0,1,4.38,4.86V38.13h3.74V68.06a14.24,14.24,0,0,1-1.74,7.11A12,12,0,0,1,248.91,80a14.59,14.59,0,0,1-7.06,1.68A15.59,15.59,0,0,1,232.52,79a11.38,11.38,0,0,1-4.62-7.27h3.69a9,9,0,0,0,3.66,4.86,11.56,11.56,0,0,0,6.6,1.82,10.62,10.62,0,0,0,5.08-1.2,8.65,8.65,0,0,0,3.53-3.56,11.5,11.5,0,0,0,1.28-5.56V60.85a11.78,11.78,0,0,1-4.41,4.94,12.85,12.85,0,0,1-7.13,1.95A13.87,13.87,0,0,1,233,65.87a13,13,0,0,1-5-5.29,16.75,16.75,0,0,1-1.8-7.91,16.57,16.57,0,0,1,1.8-7.88,12.76,12.76,0,0,1,5-5.24,14,14,0,0,1,7.19-1.85A13.07,13.07,0,0,1,247.36,39.63Zm2.94,6.89a10.31,10.31,0,0,0-3.93-4.11A10.67,10.67,0,0,0,240.89,41a11.16,11.16,0,0,0-5.56,1.39,9.86,9.86,0,0,0-3.87,4A13.06,13.06,0,0,0,230,52.67,13.25,13.25,0,0,0,231.46,59a10,10,0,0,0,3.87,4.12,11,11,0,0,0,5.56,1.41A10.76,10.76,0,0,0,246.37,63a10.28,10.28,0,0,0,3.93-4.12,12.87,12.87,0,0,0,1.44-6.2A12.87,12.87,0,0,0,250.3,46.52Z" fill="#3f3f59"/><path d="M271.54,39.09a12.17,12.17,0,0,1,6.23-1.49v3.9h-1a9.46,9.46,0,0,0-6.53,2.19c-1.64,1.46-2.45,3.9-2.45,7.32v16.3H264V38.13h3.75v5.19A9.1,9.1,0,0,1,271.54,39.09Z" fill="#3f3f59"/><path d="M283.46,44.79a12.83,12.83,0,0,1,5-5.24,14.07,14.07,0,0,1,7.19-1.85,13,13,0,0,1,7.19,1.93,11.16,11.16,0,0,1,4.36,4.91V38.13h3.74V67.31h-3.74V60.85a11.78,11.78,0,0,1-4.41,4.94,13,13,0,0,1-7.19,1.95,13.79,13.79,0,0,1-7.14-1.87,13,13,0,0,1-5-5.29,16.86,16.86,0,0,1-1.79-7.91A16.68,16.68,0,0,1,283.46,44.79Zm22.27,1.73a10.38,10.38,0,0,0-3.93-4.11A10.67,10.67,0,0,0,296.32,41a11.16,11.16,0,0,0-5.56,1.39,10,10,0,0,0-3.88,4,13.17,13.17,0,0,0-1.41,6.28A13.37,13.37,0,0,0,286.88,59a10,10,0,0,0,3.88,4.12,11,11,0,0,0,5.56,1.41A10.76,10.76,0,0,0,301.8,63a10.34,10.34,0,0,0,3.93-4.12,12.87,12.87,0,0,0,1.44-6.2A12.87,12.87,0,0,0,305.73,46.52Z" fill="#3f3f59"/><path d="M319.57,44.79a13,13,0,0,1,5-5.24,14,14,0,0,1,7.18-1.85,13.23,13.23,0,0,1,6.95,1.87,11.43,11.43,0,0,1,4.55,4.87V27.76H347V67.31h-3.74V60.79a11.16,11.16,0,0,1-4.39,5,13,13,0,0,1-7.16,1.95,13.89,13.89,0,0,1-7.19-1.87,13,13,0,0,1-5-5.29,16.86,16.86,0,0,1-1.79-7.91A16.46,16.46,0,0,1,319.57,44.79Zm22.23,1.73a10.25,10.25,0,0,0-3.93-4.11A10.61,10.61,0,0,0,332.4,41a11.16,11.16,0,0,0-5.56,1.39,10,10,0,0,0-3.88,4,13.17,13.17,0,0,0-1.41,6.28A13.37,13.37,0,0,0,323,59a10,10,0,0,0,3.88,4.12,11,11,0,0,0,5.56,1.41A10.7,10.7,0,0,0,337.87,63a10.21,10.21,0,0,0,3.93-4.12,12.76,12.76,0,0,0,1.45-6.2A12.76,12.76,0,0,0,341.8,46.52Z" fill="#3f3f59"/><path d="M355.49,31.82a2.66,2.66,0,0,1-.81-2,2.6,2.6,0,0,1,.81-2,2.67,2.67,0,0,1,1.92-.77,2.71,2.71,0,0,1,1.93.77,2.63,2.63,0,0,1,.8,2,2.68,2.68,0,0,1-.8,2,2.63,2.63,0,0,1-1.93.81A2.59,2.59,0,0,1,355.49,31.82Zm3.79,6.31V67.31h-3.74V38.13Z" fill="#3f3f59"/><path d="M394.08,54.17H369.87a11.67,11.67,0,0,0,1.6,5.66,9.46,9.46,0,0,0,3.79,3.56,11.13,11.13,0,0,0,5.13,1.2,10.31,10.31,0,0,0,6.12-1.76,8.29,8.29,0,0,0,3.29-4.76h4a12.41,12.41,0,0,1-4.57,7,14,14,0,0,1-8.8,2.7A14.69,14.69,0,0,1,373,65.9a13,13,0,0,1-5.11-5.24,16.37,16.37,0,0,1-1.84-7.94,16.73,16.73,0,0,1,1.82-8A12.63,12.63,0,0,1,373,39.52a15.06,15.06,0,0,1,7.43-1.82,14.28,14.28,0,0,1,7.3,1.82,12.49,12.49,0,0,1,4.81,4.89,14,14,0,0,1,1.68,6.82C394.18,52.51,394.15,53.49,394.08,54.17Zm-5-8.61a8.86,8.86,0,0,0-3.71-3.47,11.26,11.26,0,0,0-5.14-1.18,10.18,10.18,0,0,0-7.1,2.67,10.65,10.65,0,0,0-3.26,7.54h20.52A10.32,10.32,0,0,0,389.08,45.56Z" fill="#3f3f59"/><path d="M423.26,40.83q3.32,3.24,3.31,9.38v17.1h-3.68V50.64c0-3.17-.8-5.6-2.38-7.27a8.51,8.51,0,0,0-6.5-2.51,8.8,8.8,0,0,0-6.73,2.67c-1.68,1.78-2.51,4.4-2.51,7.86V67.31H401V38.13h3.74v5a9.54,9.54,0,0,1,4-4.09,12.28,12.28,0,0,1,5.93-1.41A11.71,11.71,0,0,1,423.26,40.83Z" fill="#3f3f59"/><path d="M439.72,41.28V59.4q0,2.68,1,3.69a5,5,0,0,0,3.58,1h3.42v3.2h-4q-3.94,0-5.88-1.84t-1.92-6.07V41.28h-4.06V38.13h4.06V30.81h3.79v7.32h8v3.15Z" fill="#3f3f59"/><path d="M455.73,65.42a8.47,8.47,0,0,1-3.55-6.34H456a5.52,5.52,0,0,0,2.32,4,9.13,9.13,0,0,0,5.53,1.52,7.28,7.28,0,0,0,4.79-1.44,4.49,4.49,0,0,0,1.73-3.59,3.32,3.32,0,0,0-1-2.45A6.78,6.78,0,0,0,467,55.58a40.06,40.06,0,0,0-4-1.2,40,40,0,0,1-5.29-1.71,9,9,0,0,1-3.45-2.54,6.76,6.76,0,0,1-1.42-4.52,6.68,6.68,0,0,1,1.29-4,8.77,8.77,0,0,1,3.63-2.89,12.84,12.84,0,0,1,5.35-1.07,11.61,11.61,0,0,1,7.59,2.38,8.69,8.69,0,0,1,3.1,6.55h-3.75a5.64,5.64,0,0,0-2-4.14A7.52,7.52,0,0,0,463,40.91a7.43,7.43,0,0,0-4.6,1.34,4,4,0,0,0-1.76,3.31,3.93,3.93,0,0,0,1,2.81,7.15,7.15,0,0,0,2.59,1.71c1,.41,2.43.86,4.17,1.36a38.83,38.83,0,0,1,5,1.66,8.73,8.73,0,0,1,3.2,2.35,6.25,6.25,0,0,1,1.39,4.11,7.21,7.21,0,0,1-1.28,4.2,8.74,8.74,0,0,1-3.58,2.91,12.31,12.31,0,0,1-5.29,1.07A13.57,13.57,0,0,1,455.73,65.42Z" fill="#3f3f59"/></svg>